PathFileType	4	(X/Y/Z)	5_coords_data.trc
DataRate	CameraRate	NumFrames	NumMarkers	Units	OrigDataRate	OrigDataStartFrame	OrigNumFrames
30.0	30.0	4	21	m	30.0	11	63
Frame#	Time	THUMB_TIP	THUMB_IP	THUMB_MCP	THUMB_CMC	INDEX_TIP	INDEX_DIP	INDEX_PIP	INDEX_MCP	MIDDLE_TIP	MIDDLE_DIP	MIDDLE_PIP	MIDDLE_MCP	RING_TIP	RING_DIP	RING_PIP	RING_MCP	PINKY_TIP	PINKY_DIP	PINKY_PIP	PINKY_MCP	WRIST
X1	Y1	Z1	X2	Y2	Z2	X3	Y3	Z3	X4	Y4	Z4	X5	Y5	Z5	X6	Y6	Z6	X7	Y7	Z7	X8	Y8	Z8	X9	Y9	Z9	X10	Y10	Z10	X11	Y11	Z11	X12	Y12	Z12	X13	Y13	Z13	X14	Y14	Z14	X15	Y15	Z15	X16	Y16	Z16	X17	Y17	Z17	X18	Y18	Z18	X19	Y19	Z19	X20	Y20	Z20	X21	Y21	Z21
10	0.3333333333333333	-0.03648960113525391	-0.17811399841308595	1.0118499755859376	-0.029361900329589845	-0.15226800537109375	1.01377001953125	-0.03086829948425293	-0.12778600311279298	1.0308499755859375	-0.027779199600219726	-0.09344159698486328	1.03872998046875	-0.022414100646972655	-0.10278600311279297	1.0210900268554688	-0.009856749534606933	-0.105	1.006510009765625	-0.009443679809570312	-0.11149299621582032	0.9838280029296875	-0.04964049911499024	-0.11139199829101562	0.9876840209960938	-0.019813199996948243	-0.08901599884033203	1.0195800170898437	-0.008572600364685058	-0.0886251983642578	1.0057899780273438	-0.008448260307312012	-0.09263600158691407	0.9782069702148437	-0.05093539810180664	-0.09193930053710937	0.9819450073242187	-0.022374500274658204	-0.07279810333251953	1.0187100219726561	-0.009314809799194336	-0.07249320220947265	1.00477001953125	-0.007614749908447266	-0.07341310119628906	0.978593017578125	-0.04766550064086914	-0.07303469848632813	0.9818930053710937	-0.023933500289916993	-0.05828519821166992	1.0145900268554688	-0.010502900123596191	-0.058281700134277345	1.0041900024414063	-0.010007200241088867	-0.05791640090942383	0.98652099609375	-0.03935319900512695	-0.05503870010375977	0.98468701171875	-0.039241298675537106	-0.06262990188598633	1.051280029296875
11	0.36666666666666664	-0.03640660095214844	-0.17813200378417968	1.0115499877929688	-0.029346799850463866	-0.15228500366210937	1.013489990234375	-0.030928800582885742	-0.12784300231933593	1.0306700439453125	-0.027937299728393556	-0.09345230102539062	1.0386099853515625	-0.022123300552368164	-0.10249600219726562	1.0205599975585937	-0.009892760276794433	-0.1050260009765625	1.0064000244140625	-0.009482589721679688	-0.11156099700927734	0.9837000122070313	-0.04980839920043945	-0.11141100311279296	0.9874559936523437	-0.01997279930114746	-0.08908270263671875	1.0195399780273438	-0.008669879913330078	-0.08868830108642578	1.0056500244140625	-0.008544699668884277	-0.09266629791259766	0.978052001953125	-0.05108000183105469	-0.09195980072021484	0.9818319702148437	-0.02235740089416504	-0.0727970962524414	1.0186599731445312	-0.009328559875488281	-0.07255460357666016	1.0044000244140625	-0.007822609901428223	-0.07352860260009765	0.9781690063476562	-0.047782901763916016	-0.07303839874267579	0.9817689819335937	-0.023950000762939454	-0.05831579971313477	1.0144400024414062	-0.01057800006866455	-0.058302501678466796	1.0040900268554687	-0.010068099975585937	-0.05794210052490235	0.9864199829101562	-0.03944770050048828	-0.055087799072265624	0.9844819946289063	-0.03937089920043945	-0.06267039871215821	1.0511600341796874
12	0.4	-0.03640359878540039	-0.17808299255371093	1.0112000122070313	-0.029388599395751953	-0.15224000549316405	1.0132100219726563	-0.030949100494384766	-0.12780599975585938	1.03043994140625	-0.027886699676513672	-0.09344429779052735	1.0383900146484375	-0.022269399642944335	-0.1025989990234375	1.0210900268554688	-0.010003999710083008	-0.1049530029296875	1.0060900268554687	-0.009577910423278808	-0.11156900024414063	0.9835499877929688	-0.04986360168457031	-0.11139399719238281	0.987343017578125	-0.020127799987792967	-0.08909380340576172	1.0191900024414062	-0.008764820098876953	-0.08865670013427734	1.0053300170898438	-0.008685279846191406	-0.09264099884033203	0.9777429809570313	-0.051188800811767576	-0.09192279815673828	0.9816320190429687	-0.02246039962768555	-0.07282009887695312	1.0184099731445313	-0.009453069686889649	-0.07254229736328124	1.00422998046875	-0.007901050090789796	-0.07342960357666016	0.97810498046875	-0.047940799713134766	-0.0729916000366211	0.981531005859375	-0.024100900650024414	-0.05832180023193359	1.0141599731445312	-0.010537099838256837	-0.058328601837158205	1.0035499877929688	-0.010245699882507325	-0.057917598724365235	0.9861019897460938	-0.03961199951171875	-0.05505049896240234	0.9843209838867187	-0.0393484001159668	-0.06269710159301758	1.050949951171875
13	0.43333333333333335	-0.03648400115966797	-0.17809100341796874	1.011010009765625	-0.029464899063110353	-0.1523090057373047	1.0129600219726562	-0.031055999755859376	-0.12787899780273437	1.030239990234375	-0.028038000106811522	-0.09353050231933593	1.0381600341796875	-0.02191230010986328	-0.10251200103759765	1.020260009765625	-0.010012999534606933	-0.105052001953125	1.0058499755859376	-0.00974917984008789	-0.11165599822998047	0.9832890014648438	-0.050035499572753904	-0.1114010009765625	0.9871060180664063	-0.020184499740600586	-0.08903209686279297	1.0191699829101561	-0.008792969703674316	-0.08869589996337891	1.0050599975585937	-0.008821080207824707	-0.09270079803466796	0.9774979858398437	-0.05133589935302734	-0.09195359802246093	0.9815239868164063	-0.02249970054626465	-0.07282769775390625	1.018280029296875	-0.00946339988708496	-0.07260469818115234	1.00375	-0.008059040069580078	-0.07347059631347656	0.9777860107421875	-0.04808169937133789	-0.07304409790039063	0.9814420166015625	-0.024063100814819337	-0.058364498138427735	1.01397998046875	-0.01060990047454834	-0.05836410140991211	1.0032899780273437	-0.010423600196838379	-0.0579468994140625	0.9857379760742188	-0.03980139923095703	-0.05504899978637695	0.9841270141601562	-0.03941379928588867	-0.06268059921264649	1.05068994140625
